<?xml version="1.0" encoding="utf-8"?>
<!-- Generator: Adobe Illustrator 26.0.1, SVG Export Plug-In . SVG Version: 6.00 Build 0)  -->
<svg version="1.1" id="Layer_1" xmlns="http://www.w3.org/2000/svg" xmlns:xlink="http://www.w3.org/1999/xlink" x="0px" y="0px"
	 viewBox="0 0 249.6 120.5" style="enable-background:new 0 0 249.6 120.5;" xml:space="preserve">
<g>
	<g>
		<g>
			<circle style="fill:#F9F9F9;" cx="34.9" cy="16.9" r="0.6"/>
			<circle style="fill:#F9F9F9;" cx="51.8" cy="17" r="0.6"/>
			<circle style="fill:#F9F9F9;" cx="85.4" cy="59.2" r="0.6"/>
			<circle style="fill:#F9F9F9;" cx="102.4" cy="33.9" r="0.6"/>
			<circle style="fill:#F9F9F9;" cx="85.4" cy="67.8" r="1"/>
			<circle style="fill:#F9F9F9;" cx="77.2" cy="76.2" r="1"/>
			<circle style="fill:#F9F9F9;" cx="68.8" cy="76.1" r="1"/>
			<circle style="fill:#F9F9F9;" cx="26.2" cy="84.8" r="1.3"/>
			<circle style="fill:#F9F9F9;" cx="26.2" cy="76.2" r="1.3"/>
			<circle style="fill:#F9F9F9;" cx="26.3" cy="67.9" r="1.3"/>
			<circle style="fill:#F9F9F9;" cx="26.2" cy="59.2" r="1.3"/>
			<circle style="fill:#F9F9F9;" cx="26.3" cy="50.9" r="1.3"/>
			<circle style="fill:#F9F9F9;" cx="26.2" cy="42.2" r="1.3"/>
			<circle style="fill:#F9F9F9;" cx="26.2" cy="34" r="1.1"/>
			<circle style="fill:#F9F9F9;" cx="60.2" cy="25.6" r="1"/>
			<circle style="fill:#F9F9F9;" cx="26.3" cy="25.7" r="0.7"/>
			<circle style="fill:#F9F9F9;" cx="43.2" cy="17" r="0.7"/>
			<circle style="fill:#F9F9F9;" cx="68.7" cy="67.9" r="0.7"/>
			<circle style="fill:#F9F9F9;" cx="85.4" cy="50.8" r="0.7"/>
			<circle style="fill:#F9F9F9;" cx="94" cy="33.9" r="0.3"/>
			<circle style="fill:#F9F9F9;" cx="136.3" cy="33.9" r="0.3"/>
			<circle style="fill:#F9F9F9;" cx="77" cy="67.8" r="0.3"/>
			<circle style="fill:#F9F9F9;" cx="187.1" cy="25.6" r="0.4"/>
			<circle style="fill:#F9F9F9;" cx="204.1" cy="34" r="0.4"/>
			<circle style="fill:#F9F9F9;" cx="212.4" cy="34" r="0.4"/>
			<circle style="fill:#F9F9F9;" cx="221" cy="42.2" r="0.4"/>
			<circle style="fill:#F9F9F9;" cx="111" cy="34" r="0.8"/>
			<circle style="fill:#F9F9F9;" cx="119.4" cy="33.9" r="0.8"/>
			<circle style="fill:#F9F9F9;" cx="127.9" cy="34" r="0.8"/>
			<circle style="fill:#F9F9F9;" cx="145" cy="33.9" r="1"/>
			<circle style="fill:#F9F9F9;" cx="145" cy="42.2" r="1"/>
			<circle style="fill:#F9F9F9;" cx="144.9" cy="25.6" r="0.8"/>
			<circle style="fill:#F9F9F9;" cx="178.8" cy="17" r="0.9"/>
			<circle style="fill:#F9F9F9;" cx="153.2" cy="17" r="1.1"/>
			<circle style="fill:#F9F9F9;" cx="187.2" cy="33.9" r="0.9"/>
			<circle style="fill:#F9F9F9;" cx="195.4" cy="34" r="0.7"/>
			<circle style="fill:#F9F9F9;" cx="26.1" cy="93.1" r="1.3"/>
			<circle style="fill:#F9F9F9;" cx="34.9" cy="25.6" r="1.8"/>
			<circle style="fill:#F9F9F9;" cx="51.9" cy="25.6" r="2"/>
			<circle style="fill:#F9F9F9;" cx="43.2" cy="25.6" r="2.7"/>
			<circle style="fill:#F9F9F9;" cx="34.9" cy="33.8" r="3.1"/>
			<circle style="fill:#F9F9F9;" cx="34.9" cy="93.1" r="2.9"/>
			<circle style="fill:#F9F9F9;" cx="60.1" cy="101.7" r="3"/>
			<circle style="fill:#F9F9F9;" cx="51.9" cy="101.7" r="3"/>
			<circle style="fill:#F9F9F9;" cx="34.8" cy="42.1" r="3.4"/>
			<circle style="fill:#F9F9F9;" cx="34.9" cy="50.9" r="3.4"/>
			<circle style="fill:#F9F9F9;" cx="35" cy="59.2" r="3.4"/>
			<circle style="fill:#F9F9F9;" cx="35" cy="67.8" r="3.4"/>
			<circle style="fill:#F9F9F9;" cx="34.9" cy="76.1" r="3.4"/>
			<circle style="fill:#F9F9F9;" cx="35" cy="84.7" r="3.4"/>
			<circle style="fill:#F9F9F9;" cx="60.2" cy="84.8" r="3.4"/>
			<circle style="fill:#F9F9F9;" cx="43.2" cy="33.9" r="4.1"/>
			<circle style="fill:#F9F9F9;" cx="43.2" cy="42.2" r="4.6"/>
			<circle style="fill:#F9F9F9;" cx="43.2" cy="50.8" r="4.6"/>
			<circle style="fill:#F9F9F9;" cx="43.2" cy="59.2" r="4.6"/>
			<circle style="fill:#F9F9F9;" cx="43.2" cy="67.8" r="4.6"/>
			<circle style="fill:#F9F9F9;" cx="43.2" cy="76.1" r="4.6"/>
			<circle style="fill:#F9F9F9;" cx="43.1" cy="84.8" r="4.7"/>
			<circle style="fill:#F9F9F9;" cx="43.1" cy="93.1" r="4.2"/>
			<circle style="fill:#F9F9F9;" cx="51.8" cy="84.9" r="4.2"/>
			<circle style="fill:#F9F9F9;" cx="51.8" cy="93.2" r="4.4"/>
			
				<ellipse transform="matrix(0.7151 -0.699 0.699 0.7151 -47.9016 68.5295)" style="fill:#F9F9F9;" cx="60.1" cy="93" rx="4.3" ry="4.3"/>
			
				<ellipse transform="matrix(0.6955 -0.7186 0.7186 0.6955 -45.9856 77.8096)" style="fill:#F9F9F9;" cx="68.8" cy="93.2" rx="4.2" ry="4.2"/>
			
				<ellipse transform="matrix(0.6742 -0.7385 0.7385 0.6742 -43.5502 87.3055)" style="fill:#F9F9F9;" cx="77.2" cy="93" rx="3.9" ry="3.9"/>
			<circle style="fill:#F9F9F9;" cx="51.9" cy="76.2" r="3.9"/>
			<circle style="fill:#F9F9F9;" cx="51.9" cy="67.9" r="3.9"/>
			<circle style="fill:#F9F9F9;" cx="51.9" cy="59.2" r="3.9"/>
			<circle style="fill:#F9F9F9;" cx="51.9" cy="50.9" r="3.9"/>
			<circle style="fill:#F9F9F9;" cx="51.8" cy="42.2" r="3.9"/>
			<circle style="fill:#F9F9F9;" cx="51.9" cy="34" r="3.6"/>
			<circle style="fill:#F9F9F9;" cx="43.1" cy="101.7" r="2.7"/>
			<circle style="fill:#F9F9F9;" cx="34.9" cy="101.7" r="1.7"/>
			<circle style="fill:#F9F9F9;" cx="60.2" cy="76.1" r="2.1"/>
			<circle style="fill:#F9F9F9;" cx="60.2" cy="67.9" r="1.9"/>
			<circle style="fill:#F9F9F9;" cx="60.1" cy="59.1" r="1.9"/>
			<circle style="fill:#F9F9F9;" cx="60.1" cy="50.8" r="1.9"/>
			<circle style="fill:#F9F9F9;" cx="60.2" cy="42.2" r="1.9"/>
			<circle style="fill:#F9F9F9;" cx="60.2" cy="34" r="1.7"/>
			<circle style="fill:#F9F9F9;" cx="68.8" cy="84.8" r="3.1"/>
			<circle style="fill:#F9F9F9;" cx="68.7" cy="101.7" r="3"/>
			<circle style="fill:#F9F9F9;" cx="77.1" cy="84.8" r="2.9"/>
			<circle style="fill:#F9F9F9;" cx="77.1" cy="101.8" r="2.8"/>
			<circle style="fill:#F9F9F9;" cx="85.4" cy="76.1" r="1.8"/>
			<circle style="fill:#F9F9F9;" cx="85.3" cy="101.7" r="2.1"/>
			<circle style="fill:#F9F9F9;" cx="94.1" cy="101.7" r="2.1"/>
			<circle style="fill:#F9F9F9;" cx="85.5" cy="84.7" r="2.5"/>
			<circle style="fill:#F9F9F9;" cx="85.5" cy="93.2" r="3.1"/>
			<circle style="fill:#F9F9F9;" cx="94" cy="42.3" r="1.3"/>
			<circle style="fill:#F9F9F9;" cx="136.3" cy="42.2" r="1.6"/>
			<circle style="fill:#F9F9F9;" cx="144.9" cy="50.8" r="1.9"/>
			
				<ellipse transform="matrix(0.7623 -0.6472 0.6472 0.7623 25.968 121.866)" style="fill:#F9F9F9;" cx="178.9" cy="25.6" rx="1.9" ry="1.9"/>
			<circle style="fill:#F9F9F9;" cx="94.1" cy="50.9" r="2.2"/>
			<circle style="fill:#F9F9F9;" cx="102.2" cy="59.2" r="3.3"/>
			<circle style="fill:#F9F9F9;" cx="102.4" cy="67.8" r="3.3"/>
			<circle style="fill:#F9F9F9;" cx="136.3" cy="50.8" r="3.2"/>
			<circle style="fill:#F9F9F9;" cx="111" cy="42.3" r="2.7"/>
			<circle style="fill:#F9F9F9;" cx="102.3" cy="42.2" r="2.1"/>
			<circle style="fill:#F9F9F9;" cx="128" cy="42.3" r="2.3"/>
			<circle style="fill:#F9F9F9;" cx="119.4" cy="42.2" r="2.7"/>
			<circle style="fill:#F9F9F9;" cx="94" cy="59.2" r="2.2"/>
			<circle style="fill:#F9F9F9;" cx="94.1" cy="67.9" r="2.3"/>
			<circle style="fill:#F9F9F9;" cx="94" cy="76.1" r="3.4"/>
			<circle style="fill:#F9F9F9;" cx="94" cy="93.2" r="3.7"/>
			<circle style="fill:#F9F9F9;" cx="94.2" cy="84.9" r="4.1"/>
			<circle style="fill:#F9F9F9;" cx="102.4" cy="93.1" r="4.2"/>
			<circle style="fill:#F9F9F9;" cx="136.3" cy="93.2" r="4.2"/>
			<circle style="fill:#F9F9F9;" cx="128.2" cy="93.2" r="4.3"/>
			<circle style="fill:#F9F9F9;" cx="119.4" cy="93.1" r="4.2"/>
			<circle style="fill:#F9F9F9;" cx="111" cy="92.9" r="4.4"/>
			<circle style="fill:#F9F9F9;" cx="102.4" cy="101.7" r="2.9"/>
			
				<ellipse transform="matrix(0.5915 -0.8063 0.8063 0.5915 -36.6714 131.0026)" style="fill:#F9F9F9;" cx="110.9" cy="101.7" rx="3.2" ry="3.2"/>
			
				<ellipse transform="matrix(0.216 -0.9764 0.9764 0.216 -5.6708 196.2224)" style="fill:#F9F9F9;" cx="119.4" cy="101.6" rx="2.7" ry="2.7"/>
			
				<ellipse transform="matrix(0.216 -0.9764 0.9764 0.216 0.9318 204.576)" style="fill:#F9F9F9;" cx="127.9" cy="101.7" rx="2.7" ry="2.7"/>
			
				<ellipse transform="matrix(0.2523 -0.9676 0.9676 0.2523 3.4633 207.9402)" style="fill:#F9F9F9;" cx="136.3" cy="101.7" rx="2.5" ry="2.5"/>
			
				<ellipse transform="matrix(0.2523 -0.9676 0.9676 0.2523 28.8128 240.6866)" style="fill:#F9F9F9;" cx="170.2" cy="101.7" rx="2.5" ry="2.5"/>
			
				<ellipse transform="matrix(0.2523 -0.9676 0.9676 0.2523 35.1798 249.1106)" style="fill:#F9F9F9;" cx="178.8" cy="101.8" rx="2.5" ry="2.5"/>
			
				<ellipse transform="matrix(0.2523 -0.9676 0.9676 0.2523 68.7539 275.1708)" style="fill:#F9F9F9;" cx="212.4" cy="93.1" rx="2.5" ry="2.5"/>
			
				<ellipse transform="matrix(0.252 -0.9677 0.9677 0.252 22.6358 232.7168)" style="fill:#F9F9F9;" cx="161.9" cy="101.7" rx="2.8" ry="2.8"/>
			
				<ellipse transform="matrix(0.2523 -0.9676 0.9676 0.2523 18.25 209.7785)" style="fill:#F9F9F9;" cx="144.9" cy="93.1" rx="2.5" ry="2.5"/>
			<circle style="fill:#F9F9F9;" cx="212.4" cy="101.9" r="1.3"/>
			<circle style="fill:#F9F9F9;" cx="221.1" cy="93.2" r="1"/>
			<circle style="fill:#F9F9F9;" cx="161.9" cy="16.9" r="1.7"/>
			<circle style="fill:#F9F9F9;" cx="170.2" cy="16.9" r="1.6"/>
			<circle style="fill:#F9F9F9;" cx="102.3" cy="50.7" r="3.6"/>
			<circle style="fill:#F9F9F9;" cx="111.1" cy="59.2" r="3.6"/>
			<circle style="fill:#F9F9F9;" cx="111" cy="67.8" r="3.6"/>
			<circle style="fill:#F9F9F9;" cx="119.2" cy="59.3" r="3.8"/>
			<circle style="fill:#F9F9F9;" cx="119.3" cy="67.8" r="3.8"/>
			<circle style="fill:#F9F9F9;" cx="102.2" cy="76.1" r="4.3"/>
			<circle style="fill:#F9F9F9;" cx="119.4" cy="76" r="4.4"/>
			<circle style="fill:#F9F9F9;" cx="110.9" cy="76.1" r="4.4"/>
			<circle style="fill:#F9F9F9;" cx="111" cy="84.7" r="4.6"/>
			<circle style="fill:#F9F9F9;" cx="102.3" cy="85" r="4.7"/>
			<circle style="fill:#F9F9F9;" cx="119.4" cy="84.7" r="4.5"/>
			<circle style="fill:#F9F9F9;" cx="110.9" cy="50.8" r="4"/>
			<circle style="fill:#F9F9F9;" cx="119.3" cy="50.8" r="4"/>
			<circle style="fill:#F9F9F9;" cx="128" cy="50.8" r="4"/>
			<circle style="fill:#F9F9F9;" cx="127.9" cy="59.2" r="4.4"/>
			<circle style="fill:#F9F9F9;" cx="128" cy="67.9" r="4.4"/>
			<circle style="fill:#F9F9F9;" cx="136.3" cy="59.2" r="4.2"/>
			<circle style="fill:#F9F9F9;" cx="136.3" cy="67.8" r="4.4"/>
			<circle style="fill:#F9F9F9;" cx="136.3" cy="76" r="4.4"/>
			<circle style="fill:#F9F9F9;" cx="136.4" cy="84.8" r="4.6"/>
			<circle style="fill:#F9F9F9;" cx="127.9" cy="84.9" r="4.7"/>
			<circle style="fill:#F9F9F9;" cx="128" cy="76.1" r="4.7"/>
			<circle style="fill:#F9F9F9;" cx="144.9" cy="101.7" r="1.8"/>
			<circle style="fill:#F9F9F9;" cx="153.2" cy="101.7" r="1.9"/>
			<circle style="fill:#F9F9F9;" cx="153.2" cy="93.2" r="2.9"/>
			<circle style="fill:#F9F9F9;" cx="153.3" cy="84.8" r="2.9"/>
			<circle style="fill:#F9F9F9;" cx="153.2" cy="76.1" r="2.9"/>
			<circle style="fill:#F9F9F9;" cx="153.2" cy="67.8" r="2.9"/>
			<circle style="fill:#F9F9F9;" cx="144.9" cy="84.8" r="3.2"/>
			<circle style="fill:#F9F9F9;" cx="144.9" cy="76.1" r="3.2"/>
			<circle style="fill:#F9F9F9;" cx="144.9" cy="67.9" r="3.2"/>
			<circle style="fill:#F9F9F9;" cx="144.9" cy="59.1" r="2.7"/>
			<circle style="fill:#F9F9F9;" cx="153.2" cy="59.2" r="3"/>
			<circle style="fill:#F9F9F9;" cx="153.2" cy="50.9" r="2.9"/>
			<circle style="fill:#F9F9F9;" cx="153.2" cy="42.3" r="2.9"/>
			<circle style="fill:#F9F9F9;" cx="153.3" cy="33.9" r="2.8"/>
			<circle style="fill:#F9F9F9;" cx="153.4" cy="25.6" r="2.3"/>
			<circle style="fill:#F9F9F9;" cx="161.9" cy="25.5" r="3.4"/>
			<circle style="fill:#F9F9F9;" cx="170.2" cy="25.5" r="3.4"/>
			<circle style="fill:#F9F9F9;" cx="161.8" cy="33.9" r="4.2"/>
			
				<ellipse transform="matrix(0.2401 -0.9707 0.9707 0.2401 81.9487 189.274)" style="fill:#F9F9F9;" cx="161.9" cy="42.3" rx="4.4" ry="4.4"/>
			
				<ellipse transform="matrix(0.2401 -0.9707 0.9707 0.2401 73.6187 195.592)" style="fill:#F9F9F9;" cx="161.7" cy="50.8" rx="4.4" ry="4.4"/>
			
				<ellipse transform="matrix(0.2401 -0.9707 0.9707 0.2401 65.6535 202.1819)" style="fill:#F9F9F9;" cx="162" cy="59.2" rx="4.4" ry="4.4"/>
			
				<ellipse transform="matrix(0.2401 -0.9707 0.9707 0.2401 57.2961 208.7239)" style="fill:#F9F9F9;" cx="162" cy="67.8" rx="4.4" ry="4.4"/>
			
				<ellipse transform="matrix(0.2401 -0.9707 0.9707 0.2401 49.1655 215.0378)" style="fill:#F9F9F9;" cx="161.9" cy="76.1" rx="4.4" ry="4.4"/>
			
				<ellipse transform="matrix(0.2401 -0.9707 0.9707 0.2401 40.6894 221.6223)" style="fill:#F9F9F9;" cx="161.9" cy="84.8" rx="4.4" ry="4.4"/>
			
				<ellipse transform="matrix(0.1687 -0.9857 0.9857 0.1687 42.8091 236.8625)" style="fill:#F9F9F9;" cx="161.8" cy="93.1" rx="4" ry="4"/>
			
				<ellipse transform="matrix(0.965 -0.2622 0.2622 0.965 -18.4803 47.8398)" style="fill:#F9F9F9;" cx="170" cy="93.2" rx="4.2" ry="4.2"/>
			
				<ellipse transform="matrix(0.3565 -0.9343 0.9343 0.3565 28.1243 226.9524)" style="fill:#F9F9F9;" cx="178.8" cy="93.1" rx="4" ry="4"/>
			
				<ellipse transform="matrix(0.4748 -0.8801 0.8801 0.4748 25.2562 228.4663)" style="fill:#F9F9F9;" cx="204.1" cy="93.1" rx="3.8" ry="3.8"/>
			
				<ellipse transform="matrix(0.5403 -0.8415 0.8415 0.5403 7.6314 200.2089)" style="fill:#F9F9F9;" cx="187.1" cy="93.1" rx="4.3" ry="4.3"/>
			
				<ellipse transform="matrix(0.5403 -0.8415 0.8415 0.5403 11.4883 207.2687)" style="fill:#F9F9F9;" cx="195.4" cy="93.1" rx="4.3" ry="4.3"/>
			
				<ellipse transform="matrix(0.2401 -0.9707 0.9707 0.2401 79.9258 203.7786)" style="fill:#F9F9F9;" cx="170.1" cy="50.8" rx="4.4" ry="4.4"/>
			
				<ellipse transform="matrix(0.8478 -0.5303 0.5303 0.8478 -5.5321 99.2046)" style="fill:#F9F9F9;" cx="170.1" cy="59.2" rx="4.8" ry="4.8"/>
			
				<ellipse transform="matrix(0.7886 -0.6149 0.6149 0.7886 -5.7501 118.9109)" style="fill:#F9F9F9;" cx="170.1" cy="67.8" rx="4.7" ry="4.7"/>
			
				<ellipse transform="matrix(0.7886 -0.6149 0.6149 0.7886 -10.8902 120.7893)" style="fill:#F9F9F9;" cx="170.2" cy="76.2" rx="4.7" ry="4.7"/>
			
				<ellipse transform="matrix(0.7886 -0.6149 0.6149 0.7886 -16.1169 122.6752)" style="fill:#F9F9F9;" cx="170.4" cy="84.8" rx="4.7" ry="4.7"/>
			
				<ellipse transform="matrix(0.9524 -0.3048 0.3048 0.9524 -4.8159 53.8584)" style="fill:#F9F9F9;" cx="170.1" cy="42.4" rx="4.1" ry="4.1"/>
			
				<ellipse transform="matrix(3.566748e-02 -0.9994 0.9994 3.566748e-02 121.696 227.6277)" style="fill:#F9F9F9;" cx="178.8" cy="50.8" rx="4.1" ry="4.1"/>
			
				<ellipse transform="matrix(3.566743e-02 -0.9994 0.9994 3.566743e-02 129.6184 236.0375)" style="fill:#F9F9F9;" cx="187.1" cy="50.9" rx="4.1" ry="4.1"/>
			
				<ellipse transform="matrix(0.1122 -0.9937 0.9937 0.1122 130.6998 247.9198)" style="fill:#F9F9F9;" cx="204.1" cy="50.8" rx="3.4" ry="3.4"/>
			
				<ellipse transform="matrix(3.566744e-02 -0.9994 0.9994 3.566744e-02 137.6702 244.515)" style="fill:#F9F9F9;" cx="195.5" cy="50.9" rx="4.1" ry="4.1"/>
			
				<ellipse transform="matrix(5.490576e-02 -0.9985 0.9985 5.490576e-02 133.8612 259.6603)" style="fill:#F9F9F9;" cx="204.1" cy="59.1" rx="4.4" ry="4.4"/>
			
				<ellipse transform="matrix(0.2996 -0.9541 0.9541 0.2996 80.5469 227.9997)" style="fill:#F9F9F9;" cx="195.6" cy="59.1" rx="4.7" ry="4.7"/>
			
				<ellipse transform="matrix(0.2996 -0.9541 0.9541 0.2996 74.5614 220.1794)" style="fill:#F9F9F9;" cx="187.2" cy="59.3" rx="4.7" ry="4.7"/>
			
				<ellipse transform="matrix(0.2996 -0.9541 0.9541 0.2996 68.6031 211.9971)" style="fill:#F9F9F9;" cx="178.7" cy="59.3" rx="4.7" ry="4.7"/>
			
				<ellipse transform="matrix(0.9747 -0.2237 0.2237 0.9747 -10.6174 41.7134)" style="fill:#F9F9F9;" cx="178.8" cy="67.7" rx="4.4" ry="4.4"/>
			
				<ellipse transform="matrix(0.9747 -0.2237 0.2237 0.9747 -10.4323 43.547)" style="fill:#F9F9F9;" cx="187" cy="67.8" rx="4.4" ry="4.4"/>
			
				<ellipse transform="matrix(0.9747 -0.2237 0.2237 0.9747 -10.2272 45.4235)" style="fill:#F9F9F9;" cx="195.4" cy="67.9" rx="4.4" ry="4.4"/>
			
				<ellipse transform="matrix(0.9747 -0.2237 0.2237 0.9747 -13.7941 47.8103)" style="fill:#F9F9F9;" cx="204.1" cy="84.8" rx="4.4" ry="4.4"/>
			
				<ellipse transform="matrix(0.9747 -0.2237 0.2237 0.9747 -12.0673 45.6847)" style="fill:#F9F9F9;" cx="195.6" cy="76.1" rx="4.4" ry="4.4"/>
			
				<ellipse transform="matrix(0.9747 -0.2237 0.2237 0.9747 -12.2889 43.795)" style="fill:#F9F9F9;" cx="187.2" cy="76.1" rx="4.4" ry="4.4"/>
			
				<ellipse transform="matrix(0.9747 -0.2237 0.2237 0.9747 -12.5162 41.921)" style="fill:#F9F9F9;" cx="178.8" cy="76.2" rx="4.4" ry="4.4"/>
			
				<ellipse transform="matrix(0.9747 -0.2237 0.2237 0.9747 -14.4507 42.1476)" style="fill:#F9F9F9;" cx="178.8" cy="84.9" rx="4.4" ry="4.4"/>
			
				<ellipse transform="matrix(0.9747 -0.2237 0.2237 0.9747 -14.235 43.9853)" style="fill:#F9F9F9;" cx="187" cy="84.8" rx="4.4" ry="4.4"/>
			
				<ellipse transform="matrix(0.9747 -0.2237 0.2237 0.9747 -14.0159 45.8527)" style="fill:#F9F9F9;" cx="195.4" cy="84.8" rx="4.4" ry="4.4"/>
			
				<ellipse transform="matrix(0.8179 -0.5753 0.5753 0.8179 -1.8213 129.8216)" style="fill:#F9F9F9;" cx="204.2" cy="67.8" rx="4.6" ry="4.6"/>
			
				<ellipse transform="matrix(0.8179 -0.5753 0.5753 0.8179 -6.689 131.2778)" style="fill:#F9F9F9;" cx="204.1" cy="76.2" rx="4.6" ry="4.6"/>
			
				<ellipse transform="matrix(0.6815 -0.7318 0.7318 0.6815 29.3627 135.3299)" style="fill:#F9F9F9;" cx="170.2" cy="33.9" rx="4" ry="4"/>
			<circle style="fill:#F9F9F9;" cx="187" cy="101.7" r="3.1"/>
			<circle style="fill:#F9F9F9;" cx="195.4" cy="101.8" r="3.1"/>
			<circle style="fill:#F9F9F9;" cx="204" cy="101.7" r="2.3"/>
			<circle style="fill:#F9F9F9;" cx="221.1" cy="84.8" r="1.5"/>
			<circle style="fill:#F9F9F9;" cx="221" cy="76" r="1.9"/>
			<circle style="fill:#F9F9F9;" cx="195.5" cy="42.3" r="2.5"/>
			<circle style="fill:#F9F9F9;" cx="187.1" cy="42.2" r="2.5"/>
			
				<ellipse transform="matrix(0.2287 -0.9735 0.9735 0.2287 104.909 200.1695)" style="fill:#F9F9F9;" cx="178.8" cy="33.9" rx="2.2" ry="2.2"/>
			
				<ellipse transform="matrix(0.2287 -0.9735 0.9735 0.2287 114.2434 245.9997)" style="fill:#F9F9F9;" cx="212.4" cy="50.9" rx="2.2" ry="2.2"/>
			<circle style="fill:#F9F9F9;" cx="178.7" cy="42.3" r="2.8"/>
			<circle style="fill:#F9F9F9;" cx="221.1" cy="67.9" r="1.8"/>
			<circle style="fill:#F9F9F9;" cx="204.1" cy="42.2" r="1.8"/>
			<circle style="fill:#F9F9F9;" cx="221.1" cy="59.2" r="1.3"/>
			<circle style="fill:#F9F9F9;" cx="221" cy="50.8" r="0.8"/>
			<circle style="fill:#F9F9F9;" cx="212.5" cy="42.2" r="0.8"/>
			<circle style="fill:#F9F9F9;" cx="212.4" cy="76.1" r="3.7"/>
			<circle style="fill:#F9F9F9;" cx="212.4" cy="67.8" r="3.8"/>
			<circle style="fill:#F9F9F9;" cx="212.3" cy="59" r="3.4"/>
			<circle style="fill:#F9F9F9;" cx="212.4" cy="84.8" r="3.4"/>
		</g>
	</g>
</g>
</svg>
