<svg id="Layer_1" data-name="Layer 1" xmlns="http://www.w3.org/2000/svg" viewBox="0 0 391.51719 300.99824"><defs><style>.cls-1,.cls-2{fill:none;stroke:#231f20;stroke-miterlimit:10;}.cls-1{stroke-width:3px;}.cls-2{stroke-width:4px;}</style></defs><path class="cls-1" d="M276.45784,216.91267c-.42749-42.8922-106.90281-46.8616-111.49875,4.20894S275.49031,303.83039,276.4645,329.46935l.03343.00012c1.15857-25.63129,116.51032-56.44066,112.28182-107.54293s-110.72962-47.8988-111.4656-5.01079Z" transform="translate(-80.8243 -81.57437)"/><path class="cls-1" d="M276.38137,243.16316c-.17934-17.99379-44.847-19.659-46.77507,1.7657s46.36918,34.69733,46.77787,45.45318l.014.00006c.486-10.75264,48.87749-23.67754,47.10358-45.11556s-46.45241-20.09412-46.76117-2.10209Z" transform="translate(-80.8243 -81.57437)"/><path class="cls-1" d="M276.7656,231.14689c-.11562-29.37809-62.48259-31.76226-65.3357,3.23345s64.49564,56.30474,64.98578,73.86333l.01958,0c.75934-17.56,68.43595-39.02582,66.11929-74.01553s-64.72129-32.46068-65.28729-3.0818Z" transform="translate(-80.8243 -81.57437)"/><path class="cls-2" d="M276.08882,198.45969c-.55061-55.2445-137.68919-60.357-143.6087,5.42105S274.84265,310.40839,276.0974,343.431l.043.00016c1.49223-33.01271,150.06353-72.69471,144.61728-138.51366s-142.618-61.69292-143.566-6.45381Z" transform="translate(-80.8243 -81.57437)"/><path class="cls-2" d="M276.40543,177.96819c-.47518-69.67887-160.37449-75.71311-167.47581,7.27143s165.68451,133.93455,167.0479,175.58253l.0502.00007c1.83978-41.64382,175.20586-92.144,169.05391-175.14575s-166.1179-77.38321-167.39013-7.70661Z" transform="translate(-80.8243 -81.57437)"/><path class="cls-2" d="M275.9625,150.91677c-.31641-87.51014-184.424-94.55917-192.87614,9.687s190.34579,167.66358,191.77783,219.966l.05781-.00008c2.25646-52.30777,202.05855-116.30654,195.24933-220.53048s-191.03214-96.63768-192.72789-9.1246Z" transform="translate(-80.8243 -81.57437)"/></svg>