<svg id="Layer_1" data-name="Layer 1" xmlns="http://www.w3.org/2000/svg" viewBox="0 0 301.11959 325.695"><defs><style>.cls-1{fill:none;stroke:#231f20;stroke-miterlimit:10;}</style></defs><path class="cls-1" d="M205.52381,395.71429S83.5,26.07143,206.119,184.40476s259.52381,222.61905,182.73809,96.42857S197.19048,22.5,216.83333,177.2619,285.28571,426.66667,205.52381,395.71429Z" transform="translate(-110.49075 -106.7263)"/><path class="cls-1" d="M197.86384,385.31362S82.3819,35.48786,198.42716,185.33271s245.61036,210.68411,172.94124,91.2589S189.97727,32.10791,208.567,178.5728,273.34959,414.6066,197.86384,385.31362Z" transform="translate(-110.49075 -106.7263)"/><path class="cls-1" d="M189.5305,396.02791S74.04857,46.20215,190.09383,196.047s245.61035,210.68411,172.94123,91.25889S181.64393,42.82219,200.23371,189.28708,265.01625,425.32088,189.5305,396.02791Z" transform="translate(-110.49075 -106.7263)"/><path class="cls-1" d="M180.00669,406.147S64.52476,56.3212,180.57,206.16605s245.61035,210.68411,172.94123,91.25889S172.12012,52.94124,190.7099,199.40613,255.49244,435.43993,180.00669,406.147Z" transform="translate(-110.49075 -106.7263)"/><path class="cls-1" d="M172.86384,413.88505S57.3819,64.05929,173.42716,213.90414,419.03752,424.58825,346.3684,305.163,164.97727,60.67933,183.567,207.14422,248.34959,443.178,172.86384,413.88505Z" transform="translate(-110.49075 -106.7263)"/><path class="cls-1" d="M166.31622,421.02791S50.83428,71.20215,166.87954,221.047,412.4899,431.73111,339.82078,312.30589,158.42965,67.82219,177.01942,214.28708,241.802,450.32088,166.31622,421.02791Z" transform="translate(-110.49075 -106.7263)"/><path class="cls-1" d="M162.14955,426.38505s-115.48193-349.82576.56333-199.98091S408.32323,437.08825,335.65411,317.663,154.263,73.17933,172.85275,219.64422,237.6353,455.678,162.14955,426.38505Z" transform="translate(-110.49075 -106.7263)"/></svg>