<svg id="Layer_1" data-name="Layer 1" xmlns="http://www.w3.org/2000/svg" viewBox="0 0 399.32602 381.14863"><defs><style>.cls-1{fill:none;stroke:#231f20;stroke-miterlimit:10;stroke-width:5px;}</style></defs><polygon class="cls-1" points="300.556 346.59 201.273 295.79 103.14 348.777 120.774 238.655 40.055 161.699 150.237 144.44 198.483 43.891 248.945 143.347 359.481 158.16 280.487 236.886 300.556 346.59"/><polygon class="cls-1" points="322.291 373.882 201.513 312.083 82.134 376.542 103.586 242.579 5.391 148.962 139.427 127.966 198.119 5.649 259.505 126.636 393.973 144.657 297.877 240.426 322.291 373.882"/><polygon class="cls-1" points="269.316 305.019 200.929 270.027 133.334 306.525 145.48 230.672 89.88 177.664 165.774 165.776 199.007 96.517 233.765 165.023 309.904 175.227 255.492 229.453 269.316 305.019"/><polygon class="cls-1" points="244.673 272.583 202.441 250.109 160.717 273.513 168.196 224.84 133.854 190.809 180.708 183.201 201.207 138.765 222.686 182.736 269.697 189.304 236.118 224.088 244.673 272.583"/><polygon class="cls-1" points="223.151 244.612 202.783 233.773 182.659 245.061 186.266 221.586 169.703 205.172 192.301 201.503 202.188 180.071 212.547 201.279 235.221 204.447 219.025 221.223 223.151 244.612"/></svg>